<svg xmlns="http://www.w3.org/2000/svg" viewBox="0 0 48 88" aria-hidden="true">
  <g fill="none" stroke="currentColor" stroke-width="2" stroke-linecap="round" stroke-linejoin="round">
    <path d="M 22 5 C 10 17 4 39 7 59 C 9 73 14 81 20 85 C 22.5 73 23.5 39 22 5 Z" fill="var(--color-paper, #f7f3e9)"/>
    <path d="M 27 5 C 39 17 45 39 42 59 C 40 73 35 81 29 85 C 26.5 73 25.5 39 27 5 Z" fill="var(--color-paper, #f7f3e9)"/>
    <ellipse cx="24.5" cy="30.0" rx="2.5" ry="3.4" transform="rotate(-10 24.5 30.0)" fill="currentColor" stroke="none"/>
    <ellipse cx="24.5" cy="44.0" rx="2.5" ry="3.4" transform="rotate(-1 24.5 44.0)" fill="currentColor" stroke="none"/>
    <ellipse cx="24.5" cy="58.0" rx="2.5" ry="3.4" transform="rotate(8 24.5 58.0)" fill="currentColor" stroke="none"/>
    <ellipse cx="24.5" cy="72.0" rx="2.5" ry="3.4" transform="rotate(17 24.5 72.0)" fill="currentColor" stroke="none"/>
  </g>
</svg>
